PathFileType	4	(X/Y/Z)	C:/Users/beibeiliu/ov580/test_trc\sequence.10_training_dense_right.trc
DataRate	CameraRate	NumFrames	NumMarkers	Units	OrigDataRate	OrigDataStartFrame	OrigNumFrames
120	120	14	19	mm	120	38	302
Frame#	Time	ThumbCMC			ThumbMCP			ThumbIP			ThumbTip			IndexMCP			IndexPIP			IndexTip			MiddleMCP			MiddlePIP			MiddleTip			RingMCP			RingPIP			RingTip			PinkyMCP			PinkyPIP			PinkyTip			BackHand1			BackHand2			BackHand3	
		X0	Y0	Z0	X1	Y1	Z1	X2	Y2	Z2	X3	Y3	Z3	X4	Y4	Z4	X5	Y5	Z5	X6	Y6	Z6	X7	Y7	Z7	X8	Y8	Z8	X9	Y9	Z9	X10	Y10	Z10	X11	Y11	Z11	X12	Y12	Z12	X13	Y13	Z13	X14	Y14	Z14	X15	Y15	Z15	X16	Y16	Z16	X17	Y17	Z17	X18	Y18	Z18	
37	0.308333	213.669	-38.6705	-0.708223	212.311	-13.932	-20.2911	192.916	2.82125	-34.2003	177.403	14.6995	-37.5053	162.835	-5.22226	-37.7491	149.143	14.3173	-38.9816	142.291	39.7094	-36.0326	145.892	-5.75324	-32.7219	132.93	13.3641	-32.8657	120.026	37.2913	-33.459	135.557	-17.8396	-18.8054	123.939	5.22406	-22.5029	116.87	22.2357	-24.9018	129.536	-29.5825	-3.85015	119.211	-12.2231	-10.3147	113.091	4.361	-17.1525	164.696	-57.8316	-5.32471	176.797	-72.2885	5.20393	188.857	-52.7723	-15.3929	
38	0.316667	210.122	-36.7502	-2.94341	208.099	-12.2679	-21.6397	190.791	5.00958	-34.8472	178.508	18.5923	-37.6847	157.704	2.57867	-40.4477	148.047	24.4265	-41.8053	142.359	47.6483	-31.471	141.24	-1.40284	-31.7228	133.969	20.4318	-35.5085	122.042	46.2516	-37.2362	132.139	-6.78675	-20.8285	121.843	8.44991	-22.307	115.385	29.7645	-26.3511	127.683	-23.2527	-4.39552	117.577	-8.93721	-8.42422	111.491	8.35873	-16.6494	159.343	-50.4573	-5.34698	172.886	-65.8159	2.97752	183.1	-50.7259	-16.6794	
39	0.325	208.501	-32.9963	-6.4875	201.262	-8.83762	-25.2778	186.33	6.56821	-34.0056	176.868	22.2358	-38.2014	160.36	4.0651	-41.6247	148.701	28.3785	-45.062	145.476	54.0074	-33.7898	140.989	7.89066	-35.832	129.935	29.4976	-36.6762	119.396	53.1475	-36.5476	126.67	0.430723	-20.1534	120.577	18.6636	-24.5253	113.466	39.5046	-27.6604	125.944	-14.0265	-7.45716	114.116	1.58603	-11.2746	106.857	19.13	-17.75	151.005	-44.8681	-5.59197	165.738	-62.8329	6.54041	178.957	-45.9562	-18.4445	
40	0.333333	201.248	-29.415	-9.40797	199.332	-6.4102	-24.3236	187.167	11.4568	-35.564	173.297	25.9108	-41.2052	155.991	9.18365	-44.1861	143.559	32.5829	-44.2949	141.448	60.4028	-33.7963	135.151	10.9371	-34.2652	129.967	32.0631	-37.9788	118.479	58.2545	-40.0939	124.55	3.25034	-18.779	118.034	24.7787	-25.557	109.566	42.9559	-28.5012	118.274	-7.25869	-5.30015	109.886	9.52233	-10.9837	102.788	24.9946	-17.7759	147.698	-37.6275	-7.67973	159.315	-57.792	3.8512	171.738	-41.298	-15.4081	
41	0.341667	195.585	-25.9959	-8.54882	198.538	-3.00783	-25.4536	181.806	14.0976	-37.1432	169.712	32.156	-44.616	153.286	15.019	-46.569	141.549	37.9161	-47.3817	138.152	61.3451	-44.3584	132.858	19.0923	-38.6972	123.486	38.4732	-39.7661	113.139	63.6304	-42.2237	120.236	12.0665	-22.7504	116.455	28.5165	-28.5906	106.014	51.5651	-32.4268	115.854	-2.05644	-5.73933	109.741	18.4512	-15.5751	100.967	30.2103	-19.7908	142.572	-34.7917	-7.67891	153.578	-48.7211	3.39063	170.493	-36.8363	-17.9409	
42	0.35	190.644	-22.1254	-9.28024	194.226	-0.300991	-25.5182	180.398	18.6365	-40.1865	168.465	35.8336	-48.5996	146.933	20.9028	-46.0311	139.38	38.7547	-48.4738	132.875	61.6986	-50.0442	128.368	22.865	-39.4502	121.974	39.5222	-42.7362	112.559	64.3902	-49.2185	122.136	16.0907	-26.3158	113.365	35.0843	-32.461	108.753	51.7339	-38.8275	112.418	4.29456	-8.31683	106.277	19.2774	-15.9302	99.1828	36.2477	-25.7035	139.485	-29.3356	-8.67289	148.361	-44.2158	3.10508	164.995	-30.4992	-19.9836	
43	0.358333	191.503	-18.7187	-9.80499	191.158	1.8763	-26.3744	180.662	18.8582	-40.2146	170.364	33.9163	-48.8922	148.112	18.5279	-47.4147	139.331	43.4305	-57.3438	132.809	61.3498	-60.2398	131.414	21.6281	-41.6644	124.519	43.4111	-51.4032	114.462	63.55	-58.1169	120.014	17.4065	-29.505	112.456	39.521	-38.801	103.72	54.6029	-43.2881	110.108	10.0046	-13.0423	107.419	25.2638	-22.0733	99.2974	40.5026	-30.3418	138.175	-24.4454	-9.04339	146.284	-40.1914	2.72473	161.64	-29.8846	-15.3918	
44	0.366667	184.949	-13.3636	-9.2489	190.538	3.65267	-26.9197	180.66	19.9647	-42.2092	170.688	35.6459	-53.8386	147.393	22.3202	-55.7963	141.352	39.6534	-63.1916	129.07	60.9135	-67.7143	130.9	24.8951	-49.2511	120.704	43.8763	-57.7165	112.321	64.0904	-68.8352	117.52	22.7635	-36.0968	111.111	40.421	-47.4687	103.412	56.1175	-53.5428	113.721	14.1614	-18.5275	104.493	30.1167	-28.3563	101.997	43.6384	-40.096	133.507	-18.7248	-13.3943	145.247	-35.4151	7.03439	162.392	-26.5041	-16.1326	
45	0.375	184.675	-10.3829	-8.46282	189.861	5.98503	-31.3744	182.084	20.1773	-49.6945	172.22	35.2627	-62.9017	148.68	17.0991	-56.6484	143.019	37.0133	-70.8007	132.156	58.2616	-80.9156	132.486	21.9193	-55.953	125.38	38.3757	-67.4532	112.44	59.8499	-80.0455	121.088	19.5721	-40.3904	111.911	38.554	-55.5376	104.663	52.9556	-66.4798	109.115	16.3068	-24.8508	107.672	27.8427	-35.1695	96.6512	42.1986	-48.2058	136.348	-15.4065	-13.2837	140.948	-32.3359	7.81259	162.814	-22.6762	-19.4706	
46	0.383333	187.57	-7.98496	-9.74537	190.405	5.6405	-31.623	182.627	19.629	-54.49	175.222	30.2677	-64.1291	153.688	15.4753	-63.6776	142.434	31.8353	-76.5653	132.093	52.2809	-90.6008	133.268	19.1713	-60.2749	126.32	35.1241	-77.013	115.14	52.3731	-91.6194	122.394	18.6052	-46.865	114.374	35.2349	-64.1454	107.492	48.8681	-77.6993	108.104	17.6634	-31.1586	103.517	31.2009	-45.1181	102.692	39.6844	-59.0135	130.519	-9.96334	-15.7949	138.363	-25.4181	3.67121	158.928	-20.8556	-17.3335	
47	0.391667	185.577	-5.64025	-5.19977	194.881	6.7758	-33.3714	188.794	16.9108	-54.4326	175.363	27.1288	-68.4231	158.472	11.3812	-66.2684	144.387	26.148	-82.4213	140.732	40.5075	-99.4918	133.867	16.6334	-65.6985	128.415	30.2459	-86.1531	120.68	43.6423	-105.421	123.807	16.76	-51.5311	114.424	31.4227	-71.6374	111.788	41.7678	-86.0188	112.801	17.7072	-36.5165	111.738	26.8606	-52.2181	106.605	33.3883	-67.9157	132.56	-11.2759	-15.5565	142.457	-23.4087	5.82828	162.421	-20.3979	-14.2394	
48	0.4	189.842	-3.21414	-6.39863	198.9	7.51444	-32.2528	189.866	15.9555	-56.5718	182.486	25.0142	-69.727	158.047	9.47349	-71.7599	154.833	17.989	-86.8263	143.435	30.6172	-102.603	138.401	12.2336	-69.9146	135.448	21.4513	-89.8894	126.445	31.9123	-111.816	129.194	13.026	-58.5391	121.957	22.8521	-75.011	114.027	35.4098	-96.9672	116.324	15.4111	-39.6425	110.234	22.9055	-56.3871	111.098	27.4478	-73.9801	136.1	-10.0178	-15.8549	141.11	-20.6029	2.899	164.853	-19.2223	-15.5996	
49	0.408333	189.535	-0.178717	-7.16247	198.144	8.53715	-35.7303	194.971	16.401	-54.8392	183.482	23.8714	-72.901	164.126	6.57743	-69.1293	155.004	15.878	-91.7773	146.562	24.2686	-110.41	148.388	6.55617	-70.1037	136.291	15.3199	-94.2722	131.296	20.9157	-113.926	129.694	9.96703	-61.4007	128.647	16.0297	-80.3239	120.328	23.9078	-102.091	122.752	11.4888	-43.2277	114.918	18.2775	-60.7968	114.949	19.0662	-77.6515	139.482	-10.102	-20.2427	147.11	-17.6354	1.54493	167.99	-18.8321	-15.4482	
50	0.416667	195.385	3.38578	-9.34397	204.086	13.0818	-34.3225	197.53	18.0149	-54.7756	186.915	24.1392	-75.9399	169.935	3.74166	-73.049	162.072	9.44045	-92.6943	153.251	14.4189	-110.698	150.985	3.93408	-76.5504	146.269	8.67925	-93.9686	132.565	11.1863	-115.784	133.268	5.35408	-62.9851	130.614	9.98992	-81.6723	122.802	14.0655	-104.26	124.942	8.58947	-47.4041	123.315	11.4612	-65.4313	114.512	13.471	-81.0727	145.94	-10.4004	-24.8194	150.473	-18.81	-0.823999	171.131	-15.7295	-14.5195	
